<?xml version="1.0" encoding="UTF-8"?>
<svg version="1.1" xmlns="http://www.w3.org/2000/svg" width="882" height="896">
<path d="M0 0 C8.82101714 6.48513804 14.75192162 14.2763594 16.52734375 25.26342773 C16.95975949 28.68187965 17.22601278 32.04028814 17.39453125 35.48046875 C19.66255338 77.77078382 26.76607715 119.43919651 43.23828125 158.66015625 C44.45503719 161.5734419 45.51352039 164.48963424 46.4765625 167.49609375 C52.68897332 186.57102347 64.14473207 203.84320318 75.125 220.4375 C76.11028687 221.92963013 76.11028687 221.92963013 77.11547852 223.4519043 C81.43620961 229.90413131 86.0509633 236.01670157 91 242 C94.70304554 240.25263305 97.29428774 238.10528562 100.3125 235.3125 C101.08158691 234.6014209 101.08158691 234.6014209 101.86621094 233.87597656 C106.89830224 229.17995814 111.75371917 224.30651969 116.5715332 219.3918457 C119.59317275 216.3264681 122.65851341 213.38628291 125.921875 210.578125 C130.33879185 206.7674935 134.4143907 202.66002841 138.5 198.5 C143.18327224 193.73142226 147.91966352 189.15024034 152.98632812 184.79101562 C156.65489554 181.52809 160.06112599 178.00151288 163.5 174.5 C168.23283384 169.6809579 173.02056682 165.04788004 178.14257812 160.64355469 C180.91067349 158.19418324 183.44175761 155.53936465 186 152.875 C193.4786941 145.25960113 200.63750212 139.8710397 211.70874023 139.61914062 C222.88833929 139.65123133 230.68274248 141.7662265 238.953125 149.58203125 C245.76536938 157.62931994 248.38288704 166.67402925 248.28515625 177.01953125 C247.2331518 188.0151394 241.1551746 196.16817513 233.546875 203.68359375 C232.92782288 204.30218765 232.30877075 204.92078156 231.67095947 205.55812073 C230.36552872 206.86054381 229.05768185 208.16054922 227.74755859 209.45825195 C225.76476428 211.42287105 223.79000858 213.39529215 221.81640625 215.36914062 C220.53953135 216.64109584 219.26220194 217.91259497 217.984375 219.18359375 C217.11362335 220.05267616 217.11362335 220.05267616 216.22528076 220.9393158 C213.28453791 223.84697464 210.29128475 226.64156484 207.15527344 229.33813477 C202.38572032 233.46921643 197.96886419 237.92429196 193.53125 242.40625 C192.65150513 243.28978149 191.77176025 244.17331299 190.86535645 245.08361816 C188.07445494 247.88665133 185.28670768 250.69279916 182.5 253.5 C178.82601262 257.2010055 175.14834398 260.89831822 171.46875 264.59375 C170.22309265 265.85185486 170.22309265 265.85185486 168.95227051 267.13537598 C164.67746062 271.42796055 160.33810179 275.56534647 155.72839355 279.49769592 C153.02281021 281.84936455 150.51045581 284.3810781 148 286.9375 C147.26716797 287.67709961 147.26716797 287.67709961 146.51953125 288.43164062 C145.34396475 289.61873229 144.17161174 290.80900498 143 292 C147.48186374 295.74386114 152.26557144 298.95712906 157.11328125 302.19921875 C158.00049362 302.79370316 158.88770599 303.38818756 159.80180359 304.00068665 C161.68123708 305.25846984 163.56153184 306.5149669 165.44262695 307.77026367 C168.26844369 309.65806791 171.08839538 311.55440806 173.90820312 313.45117188 C208.23694999 336.44085593 245.17103445 352.03522913 285.5 361.1875 C286.54285156 361.4256543 287.58570313 361.66380859 288.66015625 361.90917969 C307.35631678 365.99824793 325.96049234 367.66056197 345.04272461 368.58129883 C371.88873516 369.91157612 371.88873516 369.91157612 382.765625 380.35546875 C389.63815629 388.4895661 392.39196144 397.26018029 392.27734375 407.703125 C391.5405445 416.46169633 388.29698158 424.7726753 382 431 C374.05668634 437.36334798 365.78872032 441.01830936 355.5546875 441.2109375 C310.15889261 442.32578913 266.3919974 450.86504058 224.5625 468.75 C223.29672119 469.28620972 223.29672119 469.28620972 222.00537109 469.83325195 C203.58049708 477.90847792 186.72727851 488.08616303 170.125 499.375 C168.25715672 500.63247097 166.38866867 501.88898473 164.51953125 503.14453125 C157.2852434 508.01388884 150.07524185 512.90143848 143 518 C147.83444731 522.85996424 152.67293889 527.71587543 157.51416016 532.5690918 C159.15798104 534.21791744 160.80090029 535.86764251 162.44287109 537.51831055 C164.81366858 539.90134347 167.18777291 542.28103996 169.5625 544.66015625 C170.28679199 545.38960953 171.01108398 546.11906281 171.75732422 546.87062073 C175.061176 550.17482894 178.39212557 553.3862297 181.93554688 556.43334961 C186.68076393 560.52612111 191.06180551 564.95526813 195.46875 569.40625 C196.34849487 570.28978149 197.22823975 571.17331299 198.13464355 572.08361816 C201.39656945 575.3597232 204.65392564 578.6403498 207.91094971 581.92132568 C211.1148726 585.14830538 214.32269116 588.3713808 217.53125 591.59375 C218.36168823 592.43248657 219.19212646 593.27122314 220.04772949 594.13537598 C224.34768205 598.45320775 228.71577217 602.61221103 233.34942627 606.57131958 C241.82567101 613.90806842 247.15363106 622.21718787 248.23828125 633.47265625 C248.52744322 643.56288715 246.3295989 651.80045219 239.625 659.5 C232.32131501 666.91039467 224.47993969 670.9045463 213.9375 671.375 C202.39823907 670.27602277 194.09051896 665.62336621 186.25 657.2578125 C184.32014953 655.32126116 182.35203933 653.55407198 180.28125 651.7734375 C175.03253788 647.22333868 170.21978807 642.26932884 165.35546875 637.31640625 C162.00697477 633.9311829 158.64339331 630.63554742 155.03125 627.53125 C149.62579389 622.88053801 144.706912 617.75310504 139.7109375 612.671875 C135.60488029 608.5234873 131.42189831 604.57700023 126.99609375 600.7734375 C122.57202892 596.84285935 118.50019556 592.536629 114.35546875 588.31640625 C110.28499517 584.20128396 106.1241499 580.28431711 101.73632812 576.50927734 C98.65950805 573.83479735 95.85028663 570.9096676 93 568 C85.60245711 573.40551172 81.11657144 580.68989736 76.1875 588.25 C75.74457611 588.92328339 75.30165222 589.59656677 74.8453064 590.29025269 C63.71841752 607.20802202 54.53896745 624.18248542 47 643 C46.58186035 644.04317383 46.1637207 645.08634766 45.73291016 646.16113281 C31.42088594 682.12029415 22.35437823 718.6587103 18.94140625 757.28125 C18.81294312 758.7295797 18.81294312 758.7295797 18.68188477 760.20716858 C18.26452233 764.98448856 17.87362148 769.76229084 17.51904297 774.54467773 C17.37610048 776.30974311 17.2330395 778.0747989 17.08984375 779.83984375 C17.03889053 780.63237549 16.98793732 781.42490723 16.93544006 782.24145508 C16.17541877 791.26509727 12.25866498 799.4518373 6 806 C-2.73915787 812.96353392 -11.82369498 815.97342011 -23 815 C-32.53912864 813.23016167 -40.6472598 808.53200925 -46.71875 800.92578125 C-51.27036263 794.08448543 -52.97707928 787.16385611 -53.39453125 779.0390625 C-55.82411114 735.73031953 -62.54149897 693.40381251 -78.984375 653.06640625 C-80.2851275 649.86703797 -81.46703437 646.67069898 -82.5234375 643.3828125 C-90.65070221 618.42010616 -107.91604613 587.28487206 -127 569 C-130.44709209 569 -130.70480113 569.31196217 -133.08203125 571.5703125 C-133.67749756 572.13032959 -134.27296387 572.69034668 -134.88647461 573.26733398 C-135.52206299 573.88036377 -136.15765137 574.49339355 -136.8125 575.125 C-137.4732251 575.75156494 -138.1339502 576.37812988 -138.81469727 577.02368164 C-143.99428987 581.96176118 -149.07485259 587.00034933 -154.0793457 592.11572266 C-156.90625218 594.98866154 -159.79055595 597.71962266 -162.84765625 600.34765625 C-167.46565909 604.33761513 -171.72330634 608.65032522 -176 613 C-180.85646346 617.93933826 -185.75021776 622.71151141 -191.00390625 627.2265625 C-194.66795488 630.48190121 -198.06705043 634.00451948 -201.5 637.5 C-206.24753916 642.33401529 -211.05196985 646.97585999 -216.19140625 651.39208984 C-218.70992012 653.63114659 -220.96193606 656.09095923 -223.25 658.5625 C-231.18032109 666.68766928 -239.56817067 670.75835329 -250.96875 671.09765625 C-260.83392615 670.77983485 -269.40890271 667.11492639 -276.3125 659.875 C-283.47469796 650.52945394 -285.30039647 640.55352246 -284 629 C-281.43996893 615.86299843 -270.46054138 607.28944281 -261.36108398 598.23071289 C-259.93160283 596.80662508 -258.50759489 595.37721956 -257.08398438 593.94726562 C-256.15779297 593.02236328 -255.23160156 592.09746094 -254.27734375 591.14453125 C-253.45484131 590.32315674 -252.63233887 589.50178223 -251.78491211 588.65551758 C-249.65025676 586.62004407 -247.49600896 584.68706905 -245.26196289 582.76635742 C-240.46073192 578.59563772 -236.00404078 574.11123615 -231.53125 569.59375 C-230.65150513 568.71021851 -229.77176025 567.82668701 -228.86535645 566.91638184 C-226.07445494 564.11334867 -223.28670768 561.30720084 -220.5 558.5 C-216.82601262 554.7989945 -213.14834398 551.10168178 -209.46875 547.40625 C-208.63831177 546.56751343 -207.80787354 545.72877686 -206.95227051 544.86462402 C-202.69153037 540.58616771 -198.36844045 536.46123691 -193.77111816 532.54502869 C-190.70097529 529.86680038 -187.85775451 526.96355382 -185 524.0625 C-184.41605469 523.47404297 -183.83210937 522.88558594 -183.23046875 522.27929688 C-181.81795195 520.85520207 -180.4086219 519.4279475 -179 518 C-187.58955547 511.85146996 -196.40060235 506.04044033 -205.22070312 500.23022461 C-207.73319363 498.57358149 -210.24160878 496.91088812 -212.75 495.24804688 C-262.04415118 462.68658296 -320.55732437 442.8655614 -379.90869141 441.76123047 C-408.12455567 441.16106206 -408.12455567 441.16106206 -419 430 C-421.33320159 427.14887894 -423.2324901 424.22910462 -425 421 C-425.3403125 420.40960938 -425.680625 419.81921875 -426.03125 419.2109375 C-429.75751146 411.37888795 -429.34151763 399.68160158 -426.5625 391.625 C-422.06736117 382.2058575 -414.03620623 374.70687751 -404.33398438 370.97436523 C-400.67031299 369.90364815 -397.44843147 369.63465705 -393.63671875 369.47265625 C-392.19058411 369.40406546 -390.74445814 369.33529181 -389.29833984 369.26635742 C-388.5462323 369.23351654 -387.79412476 369.20067566 -387.01922607 369.1668396 C-341.26476667 367.11942844 -297.99155154 357.77165712 -255.9375 339.4375 C-254.93912109 339.00276367 -253.94074219 338.56802734 -252.91210938 338.12011719 C-237.45171511 331.24029297 -223.79117454 322.38891431 -209.8125 312.9375 C-207.00828115 311.04695826 -204.20289155 309.15819877 -201.39567566 307.27210999 C-199.66288593 306.10735486 -197.93187805 304.93994233 -196.20307922 303.76927185 C-190.58020341 299.98243567 -184.84408527 296.43516003 -179 293 C-179.73071213 292.26961517 -180.46142426 291.53923035 -181.21427917 290.78671265 C-183.66908395 288.33103387 -186.12113276 285.87266969 -188.5715332 283.41259766 C-192.91166229 279.05645389 -197.25400534 274.70252903 -201.59797382 270.350214 C-204.21500735 267.72796684 -206.83109706 265.1047922 -209.44506836 262.47949219 C-211.99030454 259.9233035 -214.53805445 257.36964422 -217.08748436 254.8176384 C-218.51367988 253.38873433 -219.93733279 251.95729389 -221.36091614 250.52578735 C-225.80155452 246.08476963 -230.296473 241.80363525 -235.06086731 237.71328735 C-238.68907989 234.5076425 -242.07034093 231.05140993 -245.48046875 227.6171875 C-246.25634842 226.83989288 -247.03222809 226.06259827 -247.83161926 225.26174927 C-250.28596156 222.80186104 -252.73679082 220.33850725 -255.1875 217.875 C-256.84286545 216.21461092 -258.4984624 214.55445259 -260.15429688 212.89453125 C-263.84445203 209.19449239 -267.53370416 205.49356846 -271.21658325 201.7862854 C-272.32422452 200.67686247 -273.43697909 199.57249012 -274.55758667 198.47616577 C-277.30682815 195.78394008 -279.10413759 193.36978577 -280.75 189.875 C-281.36101562 188.60269531 -281.36101562 188.60269531 -281.984375 187.3046875 C-285.45625015 179.42620158 -285.13002895 169.34523971 -282.5625 161.1875 C-278.63254667 151.90229337 -271.29304115 144.82027504 -262 141 C-253.89926313 138.31717532 -243.00365853 138.9178008 -235.35546875 142.5859375 C-225.57710093 148.45620143 -217.82762626 157.00156982 -209.90063477 165.08422852 C-205.74262544 169.31740601 -201.51882882 173.34571702 -197.01635742 177.20849609 C-192.35954453 181.34600584 -188.07632314 185.88824472 -183.7109375 190.328125 C-179.60488029 194.4765127 -175.42189831 198.42299977 -170.99609375 202.2265625 C-166.57202892 206.15714065 -162.50019556 210.463371 -158.35546875 214.68359375 C-154.35547499 218.72746312 -150.26623552 222.56289069 -145.95507812 226.27197266 C-142.66071039 229.18375273 -139.5861903 232.30826198 -136.5 235.4375 C-135.86835938 236.07365234 -135.23671875 236.70980469 -134.5859375 237.36523438 C-133.05494226 238.90782806 -131.52712333 240.45357314 -130 242 C-118.27722724 236.50756526 -110.59533741 219.5950143 -104 209 C-103.24348145 207.80600586 -103.24348145 207.80600586 -102.47167969 206.58789062 C-92.41389527 190.58837878 -85.5673299 173.33585975 -78.70831299 155.8013916 C-77.76822841 153.41055522 -76.8030166 151.03004954 -75.83984375 148.6484375 C-62.61212967 115.23124432 -57.07846153 78.74703238 -54.48046875 43.1015625 C-54.39821045 41.98225342 -54.31595215 40.86294434 -54.23120117 39.7097168 C-54.08250716 37.60523326 -53.94502469 35.49991153 -53.8215332 33.39379883 C-53.04976998 22.01484513 -50.30004427 12.11021243 -41.92578125 3.98828125 C-30.53210431 -5.49650741 -13.0389445 -7.99161115 0 0 Z M-19 205 C-19.46148437 205.95777344 -19.92296875 206.91554687 -20.3984375 207.90234375 C-33.51622359 234.81500708 -50.52525898 259.50299928 -69 283 C-70.04027344 284.33417969 -70.04027344 284.33417969 -71.1015625 285.6953125 C-76.25480254 292.16098821 -81.81166512 298.1794206 -87.50854492 304.16723633 C-91.21166715 308.061671 -94.80716304 312.02459086 -98.33007812 316.08276367 C-105.11811863 323.87610901 -112.02513914 331.40512417 -120 338 C-120.88300781 338.77085937 -121.76601563 339.54171875 -122.67578125 340.3359375 C-144.73748918 359.5487604 -169.15028051 376.33024959 -195 390 C-198.23576901 391.71874499 -201.46942108 393.44119881 -204.69921875 395.17114258 C-206.86435599 396.32977926 -209.03351872 397.48093132 -211.20703125 398.6237793 C-212.68236328 399.4113562 -212.68236328 399.4113562 -214.1875 400.21484375 C-215.06792969 400.68011475 -215.94835937 401.14538574 -216.85546875 401.62475586 C-219.27032151 402.97110024 -219.27032151 402.97110024 -221 406 C-220.32235596 406.36125977 -219.64471191 406.72251953 -218.9465332 407.09472656 C-192.48255297 421.2225339 -166.78134798 435.58237996 -143 454 C-142.46632813 454.40895508 -141.93265625 454.81791016 -141.3828125 455.23925781 C-123.41208711 469.01750406 -106.43952808 483.97146425 -91.61230469 501.14038086 C-89.33436564 503.76773727 -86.98278258 506.31896543 -84.625 508.875 C-83.6640068 509.92442816 -82.70306998 510.97390795 -81.7421875 512.0234375 C-80.1166338 513.79483108 -78.47846306 515.54770726 -76.8203125 517.2890625 C-54.14553012 541.50401877 -31.5484857 574.14875064 -19 605 C-18.34 605 -17.68 605 -17 605 C-16.52691406 604.030625 -16.05382812 603.06125 -15.56640625 602.0625 C-6.69774354 584.01567031 3.43687511 567.46687419 15 551 C15.56799316 550.1867627 16.13598633 549.37352539 16.72119141 548.53564453 C27.89635201 532.58204772 40.05970684 517.7550937 53.52734375 503.68359375 C56.561645 500.49990364 59.46782569 497.22032104 62.3503418 493.89916992 C68.82271182 486.44785034 75.39123381 479.30673134 83 473 C83.91910156 472.20464844 84.83820313 471.40929687 85.78515625 470.58984375 C112.0391697 447.9019102 140.61655721 429.83061972 171.16455078 413.52050781 C175.79060114 411.0397913 180.39562191 408.52065722 185 406 C182.57759128 403.28001416 180.00896334 401.78297229 176.79296875 400.1015625 C175.74254395 399.54662109 174.69211914 398.99167969 173.60986328 398.41992188 C172.4804834 397.82759766 171.35110352 397.23527344 170.1875 396.625 C141.4454721 381.35907676 114.98700999 363.87350223 90 343 C89.46262207 342.55430664 88.92524414 342.10861328 88.37158203 341.64941406 C77.38637389 332.51649066 66.95158118 322.84851356 57.671875 311.9609375 C53.19296495 306.70763646 48.63264916 301.5060687 43.625 296.75 C38.72030768 291.91295861 34.63120706 286.36212077 30.45605469 280.90039062 C29.06666676 279.08701107 27.66331741 277.28527248 26.2578125 275.484375 C9.29336836 253.53073806 -5.770003 229.90227892 -18 205 C-18.33 205 -18.66 205 -19 205 Z " fill="#6EB6E2" transform="translate(459,17)"/>
<path d="M0 0 C7.93616545 5.78726105 14.718296 12.84089083 16.71484375 22.74609375 C18.1026177 33.71521117 16.63885905 43.11324121 10.25 52.3125 C4.42861784 59.46825439 -3.69943286 64.9185387 -13 66 C-24.18211634 66.82162504 -33.27479474 64.11748989 -42 57 C-48.35525526 51.09768052 -52.53978812 43.03585578 -53.203125 34.3359375 C-53.39763212 22.04957118 -50.56816872 14.04349672 -42.21875 5.08984375 C-31.01401918 -5.72455834 -13.59078711 -7.61165704 0 0 Z " fill="#6EB6E2" transform="translate(748,511)"/>
<path d="M0 0 C7.4288127 7.03699768 10.88496144 16.14820837 11.2265625 26.25390625 C10.87483426 36.25705734 7.53416907 44.26990392 0.8515625 51.75390625 C-1.97206887 54.16185042 -4.87640739 56.01456393 -8.1484375 57.75390625 C-8.73882813 58.09292969 -9.32921875 58.43195313 -9.9375 58.78125 C-17.2505872 62.27671238 -27.3822671 61.86100882 -35.125 60.0625 C-45.5824678 56.19356068 -52.33264658 49.57267783 -57.18359375 39.6328125 C-60.83182386 30.38497339 -60.19026912 20.32143052 -56.3984375 11.25 C-51.92514522 2.31739448 -45.1601731 -3.65279604 -35.9609375 -7.62109375 C-22.39900378 -10.6348568 -10.9592876 -8.71066883 0 0 Z " fill="#6EB6E2" transform="translate(578.1484375,686.24609375)"/>
<path d="M0 0 C9.29597651 5.46726716 14.47704159 11.6643289 18.61328125 21.62890625 C20.47278363 32.5999703 19.57906632 42.19796855 13.73046875 51.7890625 C8.07856635 59.66229399 0.63141687 64.96624141 -8.96484375 66.71875 C-19.48346981 68.1906961 -28.84588138 65.99563239 -37.59765625 60.07421875 C-44.09587701 55.0515765 -48.93393737 47.54161084 -50.515625 39.4375 C-51.94786461 27.09295859 -49.6915467 17.71755884 -42.078125 7.8046875 C-31.75238525 -3.28721169 -13.6974973 -6.60702811 0 0 Z " fill="#6EB5E2" transform="translate(745.76171875,270.68359375)"/>
<path d="M0 0 C8.57990251 7.0709626 12.14004378 15.53371598 14.0703125 26.40625 C14.65613669 35.62321727 10.58390874 45.45190369 4.6640625 52.31640625 C-2.78228018 59.60087192 -11.41205219 63.27343557 -21.8125 63.625 C-33.3770833 63.23353315 -41.21410205 58.74831632 -49.0625 50.5 C-56.01525616 42.03577511 -57.50724328 32.90880901 -56.59179688 22.20117188 C-55.51744501 14.69573472 -51.82432001 7.40235348 -46.3125 2.25 C-31.77726853 -8.38058078 -15.38257758 -10.6629231 0 0 Z " fill="#6EB6E2" transform="translate(349.3125,103.75)"/>
<path d="M0 0 C7.54865542 6.19415878 12.81222343 13.52455532 14.75 23.25 C15.74744573 34.25460615 13.51652072 43.83537124 6.43359375 52.47265625 C-0.78907328 60.09751355 -9.69962858 64.34001147 -20.25 64.75 C-29.48517316 64.41417552 -38.40087763 61.03503705 -45.0234375 54.5 C-52.95908986 45.9281561 -55.60331785 37.98290457 -55.4609375 26.37890625 C-54.74249253 15.72197253 -49.98864282 8.54834548 -42.3125 1.4375 C-30.67672799 -8.31078991 -12.36841617 -8.76096145 0 0 Z " fill="#6EB6E2" transform="translate(574.25,102.75)"/>
<path d="M0 0 C7.30938367 5.03810626 12.752747 11.97043402 14.82421875 20.6796875 C16.84200798 31.69149848 15.5405752 41.2008703 9.19921875 50.5546875 C2.13019488 59.49075774 -6.26364868 63.61201105 -17.5234375 64.9609375 C-26.48865075 65.34041743 -35.21218587 62.28691992 -42.17578125 56.6796875 C-49.9109231 49.52538963 -54.16211788 42.42604841 -54.64404297 31.77954102 C-54.80974697 20.81630966 -51.91280685 11.65688685 -44.17578125 3.6796875 C-41.33112962 1.35224525 -38.38893537 -0.54199789 -35.17578125 -2.3203125 C-34.5725 -2.66191406 -33.96921875 -3.00351562 -33.34765625 -3.35546875 C-22.5553958 -8.39967744 -9.77744113 -5.93316894 0 0 Z " fill="#6EB6E2" transform="translate(171.17578125,512.3203125)"/>
<path d="M0 0 C3 2.5625 3 2.5625 5 5 C6.0209375 6.11375 6.0209375 6.11375 7.0625 7.25 C12.95522374 15.61386596 14.66763957 24.32214498 13.78125 34.515625 C12.1525163 43.47366034 7.192637 51.45021099 0 57 C-10.20850483 62.99769081 -20.09510892 64.3846407 -31.73828125 62.57421875 C-40.82689446 59.94287958 -48.27451505 53.04241188 -53 45 C-57.6371533 36.09455787 -57.47960023 24.62124157 -54.5625 15.1875 C-50.82613799 6.39066173 -44.27781328 -0.29518774 -35.53125 -4.1015625 C-22.49982073 -8.72691548 -11.76863115 -7.29796496 0 0 Z " fill="#6EB5E2" transform="translate(349,684)"/>
<path d="M0 0 C9.00063069 6.63763325 15.00780098 14.14016895 16.7734375 25.33984375 C17.72097979 36.46529715 15.08548409 45.58285307 8.10546875 54.390625 C0.09280982 62.92481794 -8.4047541 65.35872794 -20 66 C-29.6517215 65.46983502 -38.88992914 61.10746393 -45.46484375 54.03515625 C-52.71746549 44.42035745 -53.77628876 34.62648569 -53 23 C-51.62114536 14.13232014 -45.95077855 7.1166394 -39.0625 1.625 C-28.1474917 -5.81705112 -11.51233093 -7.35839709 0 0 Z " fill="#6EB5E2" transform="translate(170,272)"/>
</svg>
